<svg width="1280" height="640" viewBox="0 0 1280 640" fill="none" xmlns="http://www.w3.org/2000/svg" role="img" aria-labelledby="title desc">
  <title id="title">JamoLib hero image</title>
  <desc id="desc">An editorial-style banner showing Hangul decomposition, composition, and keyboard correction.</desc>
  <defs>
    <linearGradient id="bg" x1="84" y1="54" x2="1178" y2="598" gradientUnits="userSpaceOnUse">
      <stop stop-color="#F6EEDC"/>
      <stop offset="0.5" stop-color="#F2E3CC"/>
      <stop offset="1" stop-color="#E9C9A2"/>
    </linearGradient>
    <linearGradient id="inkPanel" x1="658" y1="118" x2="1120" y2="560" gradientUnits="userSpaceOnUse">
      <stop stop-color="#111C2D"/>
      <stop offset="1" stop-color="#24334B"/>
    </linearGradient>
    <linearGradient id="paperCard" x1="678" y1="178" x2="1062" y2="498" gradientUnits="userSpaceOnUse">
      <stop stop-color="#FFF7ED"/>
      <stop offset="1" stop-color="#F4E1C5"/>
    </linearGradient>
    <linearGradient id="accentBar" x1="140" y1="150" x2="476" y2="516" gradientUnits="userSpaceOnUse">
      <stop stop-color="#E35D3D"/>
      <stop offset="1" stop-color="#B93F28"/>
    </linearGradient>
    <pattern id="grid" width="40" height="40" patternUnits="userSpaceOnUse">
      <path d="M40 0H0V40" stroke="#7F6148" stroke-opacity="0.12" stroke-width="1"/>
    </pattern>
    <filter id="shadow" x="562" y="92" width="594" height="486" filterUnits="userSpaceOnUse" color-interpolation-filters="sRGB">
      <feFlood flood-opacity="0" result="BackgroundImageFix"/>
      <feColorMatrix in="SourceAlpha" type="matrix" values="0 0 0 0 0 0 0 0 0 0 0 0 0 0 0 0 0 0 127 0" result="hardAlpha"/>
      <feOffset dy="16"/>
      <feGaussianBlur stdDeviation="22"/>
      <feColorMatrix type="matrix" values="0 0 0 0 0.11 0 0 0 0 0.09 0 0 0 0 0.07 0 0 0 0.22 0"/>
      <feBlend mode="normal" in2="BackgroundImageFix" result="effect1_dropShadow_1_1"/>
      <feBlend mode="normal" in="SourceGraphic" in2="effect1_dropShadow_1_1" result="shape"/>
    </filter>
  </defs>

  <rect width="1280" height="640" rx="28" fill="url(#bg)"/>
  <rect width="1280" height="640" rx="28" fill="url(#grid)"/>
  <circle cx="1144" cy="112" r="138" fill="#FFF7EA" fill-opacity="0.75"/>
  <circle cx="178" cy="520" r="188" fill="#EAB98F" fill-opacity="0.38"/>
  <path d="M74 548C232 480 360 410 512 270" stroke="#9E6C48" stroke-opacity="0.24" stroke-width="3" stroke-linecap="round" stroke-dasharray="10 14"/>
  <path d="M892 90C1010 118 1106 192 1166 312" stroke="#C6855C" stroke-opacity="0.38" stroke-width="16" stroke-linecap="round"/>

  <text x="92" y="124" fill="#8B4B2A" font-family="'Trebuchet MS', Verdana, sans-serif" font-size="18" font-weight="700" letter-spacing="3">JAMOLIB / HANGUL TEXT ENGINE</text>
  <text x="84" y="280" fill="#1C2130" font-family="'Palatino Linotype', Georgia, serif" font-size="94" font-weight="700">Decompose.</text>
  <text x="84" y="360" fill="#1C2130" font-family="'Palatino Linotype', Georgia, serif" font-size="94" font-weight="700">Compose.</text>
  <text x="84" y="440" fill="#1C2130" font-family="'Palatino Linotype', Georgia, serif" font-size="94" font-weight="700">Correct.</text>
  <text x="92" y="496" fill="#5F4A3A" font-family="'Trebuchet MS', Verdana, sans-serif" font-size="26">Fast Hangul utilities for search, input pipelines, and text normalization.</text>

  <rect x="86" y="532" width="172" height="44" rx="22" fill="#1D283A"/>
  <text x="114" y="560" fill="#F8EEDC" font-family="'Trebuchet MS', Verdana, sans-serif" font-size="19" font-weight="700">LINEAR SCANNER</text>
  <rect x="274" y="532" width="152" height="44" rx="22" fill="#E35D3D"/>
  <text x="310" y="560" fill="#FFF4EC" font-family="'Trebuchet MS', Verdana, sans-serif" font-size="19" font-weight="700">BATCHIM SAFE</text>
  <rect x="442" y="532" width="184" height="44" rx="22" fill="#EEDFC8"/>
  <text x="474" y="560" fill="#1D283A" font-family="'Trebuchet MS', Verdana, sans-serif" font-size="19" font-weight="700">MIXED TEXT READY</text>

  <g opacity="0.11">
    <text x="666" y="190" fill="#24334B" font-family="'Palatino Linotype', Georgia, serif" font-size="182" font-weight="700">자모</text>
  </g>

  <g filter="url(#shadow)">
    <path d="M634 118H1116V544H634C618 544 604 530 604 514V148C604 132 618 118 634 118Z" fill="url(#inkPanel)"/>
  </g>

  <rect x="604" y="118" width="38" height="426" rx="19" fill="url(#accentBar)"/>
  <text x="620" y="176" transform="rotate(90 620 176)" fill="#FCEEDF" font-family="'Trebuchet MS', Verdana, sans-serif" font-size="16" font-weight="700" letter-spacing="3">WORKFLOW</text>

  <g transform="rotate(-3 872 240)">
    <rect x="688" y="160" width="366" height="116" rx="24" fill="url(#paperCard)"/>
    <text x="718" y="202" fill="#A65334" font-family="'Trebuchet MS', Verdana, sans-serif" font-size="16" font-weight="700" letter-spacing="2">DECOMPOSE</text>
    <text x="718" y="236" fill="#24334B" font-family="'Courier New', monospace" font-size="24">decomposeHangulText("한글")</text>
    <text x="718" y="260" fill="#24334B" font-family="'Courier New', monospace" font-size="24">-------------</text>
    <text x="718" y="310" fill="#141C29" font-family="'Courier New', monospace" font-size="42" font-weight="700">ㅎㅏㄴㄱㅡㄹ</text>
  </g>

  <g transform="rotate(2 884 360)">
    <rect x="710" y="290" width="336" height="108" rx="24" fill="#121B2B" stroke="#3B506F" stroke-width="2"/>
    <text x="742" y="332" fill="#8EB6FF" font-family="'Trebuchet MS', Verdana, sans-serif" font-size="16" font-weight="700" letter-spacing="2">COMPOSE</text>
    <text x="742" y="368" fill="#DDE8FF" font-family="'Courier New', monospace" font-size="24">ㄱㅏㅂㅅㅇㅣ  -&gt;</text>
    <text x="928" y="368" fill="#FFD89E" font-family="'Courier New', monospace" font-size="40" font-weight="700">값이</text>
  </g>

  <g>
    <rect x="678" y="418" width="390" height="92" rx="26" fill="#FAEEE0" stroke="#DDC5A6" stroke-width="2"/>
    <text x="710" y="454" fill="#A65334" font-family="'Trebuchet MS', Verdana, sans-serif" font-size="16" font-weight="700" letter-spacing="2">KEYBOARD CORRECTION</text>
    <text x="710" y="490" fill="#24334B" font-family="'Courier New', monospace" font-size="25">dkssudgktpdy  -&gt;  안녕하세요</text>
  </g>

  <path d="M810 274C814 290 818 306 822 322" stroke="#F6D2B5" stroke-width="4" stroke-linecap="round"/>
  <path d="M838 392C842 404 846 414 850 424" stroke="#F6D2B5" stroke-width="4" stroke-linecap="round"/>
</svg>
